<?xml version="1.0" encoding="UTF-8"?>
<svg width="494px" height="323px" viewBox="0 0 494 323" version="1.1" xmlns="http://www.w3.org/2000/svg" xmlns:xlink="http://www.w3.org/1999/xlink">
    <!-- Generator: Sketch 52.5 (67469) - http://www.bohemiancoding.com/sketch -->
    <title>Group 3</title>
    <desc>Created with Sketch.</desc>
    <g id="Page-1" stroke="none" stroke-width="1" fill="none" fill-rule="evenodd" stroke-linecap="round" stroke-linejoin="round">
        <g id="Group-3" transform="translate(15.000000, 15.000000)" stroke="#000000">
            <g id="Group-2">
                <polyline id="Path-2" stroke-width="30" points="41 277.591892 93.4483971 191.375494 117.353331 221.673973 161.6026 151.688329 211.93856 221.673973 289.014521 82 348.209622 177.688992 381.613587 141.233635 408.782375 182.419359"></polyline>
                <polyline id="Path-3" stroke-width="30" points="463.089246 288.394541 463.089246 49 318 123.52234"></polyline>
                <polyline id="Path-4" stroke-width="30" points="369 91.3536331 289.682462 2.84217094e-14 194.330485 108.505289 133.744573 30.3847339 58.687299 146.991488 0 80.5441052 3.07285394e-14 132.502983 2.56071161e-14 292.523708"></polyline>
                <polyline id="Path-7" stroke-width="15" points="171.135034 73 149.442286 99.2785897 133.559021 82.8891714 115.206278 111.397288 94 82.8891714"></polyline>
                <polyline id="Path-7" stroke-width="15" points="330.135034 38 306.754901 56.0659504 289.636146 44.7985871 269.855822 64.3972881 247 44.7985871"></polyline>
                <polyline id="Path-7" stroke-width="15" transform="translate(430.665101, 101.200400) rotate(26.000000) translate(-430.665101, -101.200400) " points="459.732618 84.0017557 443.383255 107.542799 431.412376 92.8607323 417.580304 118.399044 401.597584 92.8607323"></polyline>
            </g>
            <polyline id="Path-7" stroke-width="15" points="323.135034 144 302.285979 173.700523 287.020459 155.176915 269.381505 187.397288 249 155.176915"></polyline>
            <polyline id="Path-7" stroke-width="15" points="188.135034 197 173.473056 217.803497 162.737668 204.828782 150.333176 227.397288 136 204.828782"></polyline>
            <polyline id="Path-7" stroke-width="15" points="41.3973666 140 17.4985394 160.803497 7.10542736e-15 147.828782"></polyline>
        </g>
    </g>
</svg>