<?xml version="1.0" encoding="UTF-8" standalone="no"?>
<svg xmlns:rdf="http://www.w3.org/1999/02/22-rdf-syntax-ns#" xmlns="http://www.w3.org/2000/svg" version="1.1" xml:space="preserve" height="148.9" width="185.68" enable-background="new 0 0 367.371 293.945" y="0px" x="0px" xmlns:cc="http://creativecommons.org/ns#" xmlns:dc="http://purl.org/dc/elements/1.1/" viewBox="0 0 185.68225 148.90603"><g fill-rule="evenodd" clip-rule="evenodd" transform="matrix(.5 0 0 .5 .81097 .91759)"><path d="m150.3 191.7c1.628-1.075 13.641-8.845 13.795-9.125l48.875-81.048c18.2 0.473 67.493-0.12 81.915-8.557-2.396-4.928-5.37-9.546-7.128-14.769-12.68-37.492 28.02-59.484 53.46-77.03l-9.45 36.801c-1.248 4.839-0.713 9.189 2.175 13.297 11.73 16.717 36.647 20.354 33.064 51.155-5.936 51.054-63.051 65.162-106.18 67.516-11.515 19.104-18.053 34.161-39.399 44.417l-16.837 29.415c0.651 5.404 0.909 9.546-1.819 14.529-5.505 10.05-41.311 28.794-52.715 35.507l-104.75-1.06c-7.72-12.06-31.377-43.82-20.175-57.47 1.868-2.273 10.096-8.596 10.52-9.269l18.686-29.58c-6.525-14.12-7.115-18.03 1.714-31.14-42.853-6.62-71.063-28.71-47.554-73.723 18.187-34.804 65.63-34.868 77.441-64.774l10.538-26.804 14.75 24.757c18.581 31.356-3.583 49.364-25.341 68.876 23.546 6.618 70.965 5.776 96.896 5.355l-59.462 89.102c1.443 3.293 2.826 6.614 4.086 9.981-5.549 10.017-11.135 20.02-16.855 29.938l18.656 0.421c6.875-12.32 13.512-24.785 20.179-37.213l0.9 0.48" fill="#cfc493"/><path d="m60.874 191.85c-1.358-2.989-2.925-6.574-3.189-7.908-0.442-2.258-0.706-5.788 1.401-8.94l10.734-16.01c-57.152-4.49-73.485-29.29-54.418-63.661 5.033-9.091 12.019-15.58 19.577-20.76 3.687-2.528 7.595-4.799 11.601-6.959 3.847-2.062 7.785-4.024 11.7-6.028 15.503-7.939 28.572-15.642 34.97-31.907l4.682-11.911 6.551 11.005c11.822 19.866 1.462 35.947-9.353 46.74-2.691 2.685-5.549 5.195-8.332 7.542-2.661 2.228-5.248 4.298-7.534 6.225-2.273 1.899-3.981 3.429-5.143 4.707-0.399 0.439-0.683 0.792-0.866 1.057 0.019 0.728 0.516 1.622 2.132 2.686 1.813 1.183 4.621 2.276 8.24 3.253 7.275 1.969 17.224 3.321 27.424 4.258 20.505 1.883 41.999 2.064 44.955 2.021l11.951-0.19-53.655 80.404 2.236 4.431c0.657 1.327 1.321 2.667 1.819 3.699l0.607 1.314c0.326 0.75 0.338 1.284 0.326 1.396l-1.549-0.2s1.629 0.341 1.075 1.257l-0.749 1.241-2.667 4.424-8.087 13.384-10.359 17.131c7.822 0.185 30.318 0.707 36.825 0.82 3.011-5.595 19.964-37.129 19.982-37.338l0.086-0.793 0.694-0.396c0.375-0.215 13.113-8.28 15.547-9.865l47.253-78.496 3.649 0.089c1.235 0.031 20.081 0.271 39.695-1.53 20.154-1.844 39.449-5.776 43.296-12.993 0.055-0.378-0.007-0.581-0.104-0.845-0.345-0.961-0.812-2.283-1.752-4.077-1.02-1.939-2.23-4.028-3.392-6.28-1.309-2.522-2.568-5.229-3.539-8.117-4.431-13.187-2.268-28.779 18.981-46.119l14.212-9.967-4.209 16.403c-3.742 14.806 2.876 21.172 12.689 28.856 2.617 2.037 5.278 4.046 7.797 6.154 2.618 2.2 5.261 4.661 7.559 7.524 4.756 5.933 7.822 13.328 6.992 23.125-2.832 33.384-37.654 58.101-102.9 60.606l-17.672 28.748c-3.441 5.613-15.313 14.096-22.754 17.227l-19.344 33.771c0.147 1.585 0.614 6.394 0.694 7.558 0.11 2.089-0.664 3.761-1.211 4.701-0.583 1.02-1.327 1.904-2.016 2.63-1.37 1.459-3.177 2.949-5.075 4.372-1.93 1.446-12.154 7.589-21.752 13.288-9.653 5.738-19.221 11.352-19.221 11.352l-98.322-0.986s-4.123-6.439-8.147-13.165c-3.994-6.651-8.462-14.482-9.955-18.624-0.405-1.106-0.799-2.179-1.137-3.223-0.35-1.106-0.626-2.188-0.768-3.232-0.301-2.209-0.012-4.455 1.623-6.514 0.682-0.86 3.318-3.146 5.665-5.134 2.163-1.837 4.308-3.592 5.082-4.203l21.253-33.87c-0.498-1.05-1.431-3.04-2.39-5.15" fill="#fff"/><path d="m99.087 31.971c19.036 31.977-30.675 51.551-32.229 62.215-3.042 20.803 89.252 19.344 89.252 19.344l-49.06 73.51s5.1 11.478 5.413 11.466c0.228-0.006-26.226 42.34-26.532 43.114l51.406 1.088c0.571-0.246 21.021-40.061 21.371-39.999 0.154 0.03 16.025-10.286 16.025-10.286l46.104-76.585s78.572 1.933 88.815-18.87c5.267-10.67-30.772-30.466 8.449-62.467-9.444 37.332 37.563 34.662 34.859 66.673-2.439 28.708-33.342 53.216-100.22 54.974l-19.448 31.623c-2.882 4.695-15.896 13.826-21.709 15.405l-21.304 37.197c-0.313 0.534 0.534 7.029 0.694 9.604 0.307 5.512-37.146 25.085-44.722 29.69l-93.036-0.94c-3.453-5.884-19.645-28.981-16.64-34.804 1.597-3.082 11.22-9.152 10.697-9.398l23.056-37.001c-1.248-4.132-8.935-14.691-6.022-19.052l16.861-25.16c-65.251-2.06-76.668-25.39-60.28-54.956 17.749-32.002 63.539-29.083 78.212-66.394" fill="#006747"/></g></svg>
